<svg version="1.2" xmlns="http://www.w3.org/2000/svg" viewBox="0 0 864 682" width="864" height="682">
	<title>programmer_v_02-ai</title>
	<style>
		.s0 { fill: #3d3d3d } 
		.s1 { fill: #707070 } 
		.s2 { fill: #a0a0a0 } 
		.s3 { opacity: .7;mix-blend-mode: multiply;fill: #212e35 } 
		.s4 { fill: #cccccc } 
		.s5 { fill: #302530 } 
		.s6 { fill: #60485e } 
		.s7 { fill: #423241 } 
		.s8 { fill: #603043 } 
		.s9 { fill: #00788c } 
		.s10 { fill: #757573 } 
		.s11 { fill: #999995 } 
		.s12 { fill: #544753 } 
		.s13 { fill: #cacea5 } 
		.s14 { fill: #e0e8bf } 
		.s15 { fill: #353535 } 
		.s16 { fill: #ff5821 } 
		.s17 { fill: #889f33 } 
		.s18 { fill: #ffffff } 
		.s19 { fill: #9c9e8f } 
		.s20 { fill: #c9ccbc } 
		.s21 { fill: #728425 } 
		.s22 { fill: #212030 } 
		.s23 { fill: #ffa471 } 
		.s24 { fill: #171721 } 
		.s25 { fill: #636363 } 
		.s26 { fill: #f2edee } 
		.s27 { fill: #f2f0eb } 
		.s28 { fill: #e07f4f } 
		.s29 { fill: #121c26 } 
		.s30 { fill: #49211c } 
		.s31 { fill: #d83a0f } 
		.s32 { fill: #3c3c56 } 
		.s33 { fill: #8a8a8e } 
		.s34 { fill: #44283e } 
		.s35 { fill: #553d57 } 
		.s36 { opacity: .7;mix-blend-mode: color-dodge;fill: #49363e } 
		.s37 { fill: #69698e } 
		.s38 { fill: #2d2d3f } 
		.s39 { fill: #1d1d28 } 
		.s40 { fill: #49363e } 
		.s41 { fill: #717199 } 
		.s42 { fill: #33bbcf } 
		.s43 { fill: #663445 } 
	</style>
	<g id="Layer 1">
		<g id="&lt;Group&gt;">
			<g id="&lt;Group&gt;">
				<g id="&lt;Group&gt;">
					<g id="&lt;Group&gt;">
						<g id="&lt;Group&gt;">
							<path id="&lt;Path&gt;" class="s0" d="m513.7 229.4c0.4-6 4-10.8 8.1-10.8h23c4.1 0 8 4.8 8.7 10.8l8.6 68c0.7 6-3.5 10.8-9.5 10.8h-33.6c-6 0-10.5-4.8-10-10.8z"/>
							<path id="&lt;Path&gt;" class="s1" d="m521.9 242.3c0.3-4.6 3.2-8.4 6.5-8.4h18.4c3.2 0 6.3 3.8 6.9 8.4l6.8 53.3c0.6 4.6-2.7 8.4-7.5 8.4h-26.9c-4.7 0-8.3-3.8-8-8.4z"/>
							<g id="&lt;Group&gt;">
								<path id="&lt;Compound Path&gt;" fill-rule="evenodd" class="s0" d="m538.6 263.9c9.9 0 17.8 7.9 17.8 17.7 0 9.8-7.9 17.8-17.8 17.8-9.8 0-17.7-8-17.7-17.8 0-9.8 7.9-17.7 17.7-17.7zm-16.4 17.7c0 9.1 7.4 16.5 16.4 16.5 9.1 0 16.5-7.4 16.5-16.5 0-9.1-7.4-16.4-16.5-16.4-9 0-16.4 7.3-16.4 16.4z"/>
								<path id="&lt;Path&gt;" class="s0" d="m538.6 268c7.6 0 13.7 6.1 13.7 13.6 0 7.6-6.1 13.6-13.7 13.6-7.5 0-13.6-6-13.6-13.6 0-7.5 6.1-13.6 13.6-13.6z"/>
							</g>
							<g id="&lt;Group&gt;">
								<path id="&lt;Compound Path&gt;" fill-rule="evenodd" class="s0" d="m538.6 239.6c5.6 0 10.1 4.5 10.1 10.1 0 5.5-4.5 10-10.1 10-5.5 0-10-4.5-10-10 0-5.6 4.5-10.1 10-10.1zm-9.2 10.1c0 5.1 4.1 9.3 9.2 9.3 5.2 0 9.3-4.2 9.3-9.3 0-5.2-4.1-9.3-9.3-9.3-5.1 0-9.2 4.1-9.2 9.3z"/>
								<path id="&lt;Path&gt;" class="s0" d="m538.6 242c4.3 0 7.7 3.4 7.7 7.7 0 4.2-3.4 7.7-7.7 7.7-4.2 0-7.7-3.5-7.7-7.7 0-4.3 3.5-7.7 7.7-7.7z"/>
							</g>
						</g>
						<g id="&lt;Group&gt;">
							<g id="&lt;Group&gt;">
								<g id="&lt;Group&gt;">
									<g id="&lt;Group&gt;">
										<path id="&lt;Path&gt;" class="s2" d="m44.2 326.8h28.6v326.4h-28.6z"/>
									</g>
									<path id="&lt;Path&gt;" class="s3" d="m44.2 641.8h28.6v11.4h-28.6z"/>
								</g>
								<g id="&lt;Group&gt;">
									<path id="&lt;Path&gt;" class="s4" d="m61.7 344.5c0-2.1 1.3-3.7 2.9-3.7 1.6 0 2.9 1.6 2.9 3.7v263c0 2.1-1.3 3.7-2.9 3.7-1.6 0-2.9-1.6-2.9-3.7z"/>
								</g>
							</g>
							<g id="&lt;Group&gt;">
								<g id="&lt;Group&gt;">
									<g id="&lt;Group&gt;">
										<path id="&lt;Path&gt;" class="s2" d="m248.1 326.8h28.6v326.4h-28.6z"/>
									</g>
									<path id="&lt;Path&gt;" class="s3" d="m248.1 641.8h28.6v11.4h-28.6z"/>
								</g>
								<g id="&lt;Group&gt;">
									<path id="&lt;Path&gt;" class="s4" d="m265.5 344.5c0-2.1 1.3-3.7 2.9-3.7 1.7 0 3 1.6 3 3.7v263c0 2.1-1.3 3.7-3 3.7-1.6 0-2.9-1.6-2.9-3.7z"/>
								</g>
							</g>
							<g id="&lt;Group&gt;">
								<g id="&lt;Group&gt;">
									<g id="&lt;Group&gt;">
										<path id="&lt;Path&gt;" class="s2" d="m575.1 326.8h28.6v326.4h-28.6z"/>
									</g>
									<path id="&lt;Path&gt;" class="s3" d="m575.1 641.8h28.6v11.4h-28.6z"/>
								</g>
								<g id="&lt;Group&gt;">
									<path id="&lt;Path&gt;" class="s4" d="m592.6 344.5c0-2.1 1.3-3.7 2.9-3.7 1.6 0 2.9 1.6 2.9 3.7v263c0 2.1-1.3 3.7-2.9 3.7-1.6 0-2.9-1.6-2.9-3.7z"/>
								</g>
							</g>
							<g id="&lt;Group&gt;">
								<g id="&lt;Group&gt;">
									<g id="&lt;Group&gt;">
										<path id="&lt;Path&gt;" class="s2" d="m778.2 326.8h28.6v326.4h-28.6z"/>
									</g>
									<path id="&lt;Path&gt;" class="s3" d="m778.2 641.8h28.6v11.4h-28.6z"/>
								</g>
								<g id="&lt;Group&gt;">
									<path id="&lt;Path&gt;" class="s4" d="m795.6 344.5c0-2.1 1.3-3.7 2.9-3.7 1.6 0 2.9 1.6 2.9 3.7v263c0 2.1-1.3 3.7-2.9 3.7-1.6 0-2.9-1.6-2.9-3.7z"/>
								</g>
							</g>
							<g id="&lt;Group&gt;">
								<g id="&lt;Group&gt;">
									<path id="&lt;Path&gt;" class="s5" d="m42.7 320.2h765.3v25.1h-765.3z"/>
								</g>
								<g id="&lt;Group&gt;">
									<g id="&lt;Group&gt;">
										<path id="&lt;Path&gt;" class="s6" d="m20.9 309.3h810.5v16.8h-810.5z"/>
									</g>
									<g id="&lt;Group&gt;">
										<path id="&lt;Path&gt;" class="s7" d="m20.9 309.3h222.6v16.8h-222.6z"/>
									</g>
								</g>
							</g>
						</g>
						<g id="&lt;Group&gt;">
							<path id="&lt;Path&gt;" class="s8" d="m743.8 267q0.7-0.1 1.5-0.2-1.2 0.1-1.5 0.2z"/>
						</g>
						<g id="&lt;Group&gt;">
							<path id="&lt;Path&gt;" class="s9" d="m743 413.1c17.1 2.5-5.6 10.4 9.3 15.8l-75.6 11.6c-38.6-2.3-149 4.5-166.8 0-6.3-1.6-39.2-0.8-41.9-4.6 20.6-33.3 249.3-26.5 275-22.8z"/>
						</g>
						<g id="&lt;Group&gt;">
							<g id="&lt;Group&gt;">
								<g id="&lt;Group&gt;">
									<path id="&lt;Path&gt;" class="s0" d="m354.6 232h35.9v74.9h-35.9z"/>
									<path id="&lt;Path&gt;" class="s10" d="m373.9 232h16.6v74.9h-16.6z"/>
									<g id="&lt;Group&gt;">
										<path id="&lt;Path&gt;" class="s11" d="m295.3 299.6h154.5c1.3 0 2.5 0.5 3.3 1.3 0.9 0.9 1.4 2.1 1.4 3.3 0 2.6-2.1 4.7-4.7 4.7h-154.5c-2.6 0-4.7-2.1-4.7-4.7 0-2.5 2.1-4.6 4.7-4.6z"/>
										<path id="&lt;Path&gt;" class="s0" d="m293.9 299.6h55.8c0.9 0 1.7 0.5 2.3 1.3 0.6 0.9 1 2.1 1 3.3 0 2.6-1.5 4.7-3.3 4.7h-55.8c-1.8 0-3.3-2.1-3.3-4.7 0-2.5 1.5-4.6 3.3-4.6z"/>
									</g>
									<g id="&lt;Group&gt;">
										<path id="&lt;Path&gt;" class="s0" d="m255.3 84.5h249.7c8.6 0 15.6 7.4 15.6 16.6v142c0 8.1-5.5 15-12.7 16.4q-1.4 0.3-2.9 0.3h-249.7q-1.5 0-2.9-0.3c-7.2-1.4-12.7-8.3-12.7-16.4v-142c0-9.2 7-16.6 15.6-16.6z"/>
										<path id="&lt;Path&gt;" class="s12" d="m272.4 91.8h225.9c7.8 0 14.1 6.8 14.1 15.3v130.1c0 8.4-6.3 15.3-14.1 15.3h-225.9c-7.8 0-14.1-6.9-14.1-15.3v-130.1c0-8.5 6.3-15.3 14.1-15.3z"/>
										<g id="&lt;Group&gt;">
											<path id="&lt;Path&gt;" class="s4" d="m521.4 222.4v21.1c0 8.4-5.2 15.3-12 16.8h-239.9c-6.8-1.5-11.9-8.4-11.9-16.8v-21.1z"/>
										</g>
									</g>
									<path id="&lt;Path&gt;" class="s10" d="m393.6 230.1c4.3 0 7.8 2.6 7.8 5.9 0 3.2-3.5 5.8-7.8 5.8-4.3 0-7.8-2.6-7.8-5.8 0-3.3 3.5-5.9 7.8-5.9z"/>
								</g>
								<g id="&lt;Group&gt;">
									<g id="&lt;Group&gt;">
										<path id="&lt;Path&gt;" class="s13" d="m489.4 100h13v1.3h-13z"/>
										<path id="&lt;Path&gt;" class="s13" d="m415.6 100h17.5v1.3h-17.5z"/>
										<path id="&lt;Path&gt;" class="s13" d="m354.7 100h57.2v1.3h-57.2z"/>
										<path id="&lt;Path&gt;" class="s13" d="m315.4 101.3v-1.3h35.6v1.3h-12.9v-0.9h-4.2v0.9z"/>
										<path id="&lt;Path&gt;" class="s13" d="m290.5 100h14.3v1.3h-14.3z"/>
										<path id="&lt;Path&gt;" class="s13" d="m489.4 106.4h13v1.4h-13z"/>
										<path id="&lt;Path&gt;" class="s13" d="m354.7 106.4h14.7v1.4h-14.7z"/>
										<path id="&lt;Path&gt;" class="s13" d="m338.1 106.4h12.9v1.4h-12.9z"/>
										<path id="&lt;Path&gt;" class="s13" d="m290.5 106.4h14.3v1.4h-14.3z"/>
										<path id="&lt;Path&gt;" class="s13" d="m315.4 106.4h18.5v1.4h-18.5z"/>
										<path id="&lt;Path&gt;" class="s13" d="m415.6 106.4h17.5v1.4h-17.5z"/>
										<path id="&lt;Path&gt;" class="s13" d="m376.4 106.4h35.5v1.4h-35.5z"/>
										<path id="&lt;Path&gt;" class="s13" d="m489.4 112.9h13v1.4h-13z"/>
										<path id="&lt;Path&gt;" class="s13" d="m376.4 112.9h48v1.4h-48z"/>
										<path id="&lt;Path&gt;" class="s13" d="m366.7 112.9h2.7v1.4h-2.7z"/>
										<path id="&lt;Path&gt;" class="s13" d="m338.1 112.9h18v1.4h-18z"/>
										<path id="&lt;Path&gt;" class="s13" d="m315.4 112.9h18.5v1.4h-18.5z"/>
										<path id="&lt;Path&gt;" class="s13" d="m290.5 112.9h14.3v1.4h-14.3z"/>
										<path id="&lt;Path&gt;" class="s13" d="m489.4 119.3h13v1.4h-13z"/>
										<path id="&lt;Path&gt;" class="s13" d="m376.4 119.3h48v1.4h-48z"/>
										<path id="&lt;Path&gt;" class="s13" d="m366.7 119.3h2.7v1.4h-2.7z"/>
										<path id="&lt;Path&gt;" class="s13" d="m315.4 119.3h40.7v1.4h-40.7z"/>
										<path id="&lt;Path&gt;" class="s13" d="m290.5 119.3h7.4v1.4h-7.4z"/>
										<path id="&lt;Path&gt;" class="s13" d="m299.7 119.3h5.1v1.4h-5.1z"/>
										<path id="&lt;Path&gt;" class="s13" d="m465 125.8h37.4v1.4h-37.4z"/>
										<path id="&lt;Path&gt;" class="s13" d="m412.8 125.8h11.6v1.4h-11.6z"/>
										<path id="&lt;Path&gt;" class="s13" d="m299.7 125.8h56.4v1.4h-56.4z"/>
										<path id="&lt;Path&gt;" class="s13" d="m290.5 125.8h7.4v1.4h-7.4z"/>
										<path id="&lt;Path&gt;" class="s13" d="m382.8 125.8h14.3v1.4h-14.3z"/>
										<path id="&lt;Path&gt;" class="s13" d="m435 133.2h30v-0.9h37.4v1.4h-67.4z"/>
										<path id="&lt;Path&gt;" class="s13" d="m382.8 132.3h14.3v1.4h-14.3z"/>
										<path id="&lt;Path&gt;" class="s13" d="m356.1 132.3v0.9h4.6v0.5h-30v-1.4z"/>
										<path id="&lt;Path&gt;" class="s13" d="m299.7 132.3h29.6v1.4h-29.6z"/>
										<path id="&lt;Path&gt;" class="s13" d="m290.5 132.3h7.4v1.4h-7.4z"/>
										<path id="&lt;Path&gt;" class="s13" d="m412.8 132.3h11.6v1.4h-11.6z"/>
										<path id="&lt;Path&gt;" class="s14" d="m502.4 138.7v1.4h-1.9v-0.5h-4.1v0.5h-83.6v-1.4z"/>
										<path id="&lt;Path&gt;" class="s14" d="m382.8 138.7h14.3v1.4h-14.3z"/>
										<path id="&lt;Path&gt;" class="s14" d="m330.7 138.7h30v1.4h-30z"/>
										<path id="&lt;Path&gt;" class="s14" d="m299.7 138.7h29.6v1.4h-29.6z"/>
										<path id="&lt;Path&gt;" class="s14" d="m290.5 138.7h7.4v1.4h-7.4z"/>
										<path id="&lt;Path&gt;" class="s14" d="m500.5 145.2h1.9v1.4h-1.9z"/>
										<path id="&lt;Path&gt;" class="s14" d="m412.8 145.2h83.6v1.4h-83.6z"/>
										<path id="&lt;Path&gt;" class="s14" d="m382.8 145.2h14.3v1.4h-14.3z"/>
										<path id="&lt;Path&gt;" class="s14" d="m330.7 145.2h30v1.4h-30z"/>
										<path id="&lt;Path&gt;" class="s14" d="m299.7 145.2h29.6v1.4h-29.6z"/>
										<path id="&lt;Path&gt;" class="s14" d="m290.5 145.2h7.4v1.4h-7.4z"/>
										<path id="&lt;Path&gt;" class="s14" d="m412.8 151.6h83.6v1.4h-83.6z"/>
										<path id="&lt;Path&gt;" class="s14" d="m385.1 151.6h12v1.4h-12z"/>
										<path id="&lt;Path&gt;" class="s14" d="m335.7 151.6h25v1.4h-25z"/>
										<path id="&lt;Path&gt;" class="s14" d="m290.5 151.6h21.7v1.4h-21.7z"/>
										<path id="&lt;Path&gt;" class="s14" d="m320.5 151.6h4.6v1.4h-4.6z"/>
										<path id="&lt;Path&gt;" class="s14" d="m335.7 158.1h25v1.4h-25z"/>
										<path id="&lt;Path&gt;" class="s14" d="m320.5 158.1h4.6v1.4h-4.6z"/>
										<path id="&lt;Path&gt;" class="s14" d="m306.7 158.1h5.5v1.4h-5.5z"/>
										<path id="&lt;Path&gt;" class="s14" d="m290.5 158.1h13.9v1.4h-13.9z"/>
										<path id="&lt;Path&gt;" class="s14" d="m385.1 158.1h12v1.4h-12z"/>
										<path id="&lt;Path&gt;" class="s14" d="m482.5 158.1h13.9v1.4h-13.9z"/>
										<path id="&lt;Path&gt;" class="s14" d="m412.8 158.1h69.2v1.4h-69.2z"/>
										<path id="&lt;Path&gt;" class="s14" d="m385.1 164.6h12v1.4h-12z"/>
										<path id="&lt;Path&gt;" class="s14" d="m335.7 164.6h25v1.4h-25z"/>
										<path id="&lt;Path&gt;" class="s14" d="m320.5 164.6h4.6v1.4h-4.6z"/>
										<path id="&lt;Path&gt;" class="s14" d="m306.7 164.6h5.5v1.4h-5.5z"/>
										<path id="&lt;Path&gt;" class="s14" d="m290.5 164.6h13.9v1.4h-13.9z"/>
										<path id="&lt;Path&gt;" class="s14" d="m412.8 164.6h69.2v1.4h-69.2z"/>
										<path id="&lt;Path&gt;" class="s14" d="m482.5 164.6h13.9v1.4h-13.9z"/>
										<path id="&lt;Path&gt;" class="s14" d="m496.4 171v1h4.1v-1h0.5v1.4h-18.5v-1.4z"/>
										<path id="&lt;Path&gt;" class="s14" d="m385.1 171h96.9v1.4h-96.9z"/>
										<path id="&lt;Path&gt;" class="s14" d="m346.8 171h13.9v1.4h-13.9z"/>
										<path id="&lt;Path&gt;" class="s14" d="m306.7 171h38.7v1.4h-38.7z"/>
										<path id="&lt;Path&gt;" class="s14" d="m290.5 171h13.9v1.4h-13.9z"/>
										<path id="&lt;Path&gt;" class="s14" d="m385.1 177.5h67.9v1.4h-67.9z"/>
										<path id="&lt;Path&gt;" class="s14" d="m482.5 177.5h18.5v1.4h-18.5z"/>
										<path id="&lt;Path&gt;" class="s14" d="m459 177.5h23v1.4h-23z"/>
										<path id="&lt;Path&gt;" class="s14" d="m306.7 177.5h38.7v1.4h-38.7z"/>
										<path id="&lt;Path&gt;" class="s14" d="m346.8 177.5h26.3v1.4h-26.3z"/>
										<path id="&lt;Path&gt;" class="s14" d="m290.5 177.5h13.9v1.4h-13.9z"/>
										<path id="&lt;Path&gt;" class="s14" d="m492.2 184h8.8v1.3h-8.8z"/>
										<path id="&lt;Path&gt;" class="s14" d="m482.5 184h7.4v1.3h-7.4z"/>
										<path id="&lt;Path&gt;" class="s14" d="m459 184h23v1.3h-23z"/>
										<path id="&lt;Path&gt;" class="s14" d="m385.1 184h67.9v1.3h-67.9z"/>
										<path id="&lt;Path&gt;" class="s14" d="m346.8 184h26.3v1.3h-26.3z"/>
										<path id="&lt;Path&gt;" class="s14" d="m306.7 184h38.7v1.3h-38.7z"/>
										<path id="&lt;Path&gt;" class="s14" d="m290.5 184h13.9v1.3h-13.9z"/>
										<path id="&lt;Path&gt;" class="s14" d="m361.1 190.4h72.5v1.4h-72.5z"/>
										<path id="&lt;Path&gt;" class="s14" d="m492.2 190.4h8.8v1.4h-8.8z"/>
										<path id="&lt;Path&gt;" class="s14" d="m479.7 190.4h10.2v1.4h-10.2z"/>
										<path id="&lt;Path&gt;" class="s14" d="m459 190.4h16.1v1.4h-16.1z"/>
										<path id="&lt;Path&gt;" class="s14" d="m436.8 190.4h16.2v1.4h-16.2z"/>
										<path id="&lt;Path&gt;" class="s14" d="m346.8 190.4h11.6v1.4h-11.6z"/>
										<path id="&lt;Path&gt;" class="s14" d="m290.5 190.4h54.9v1.4h-54.9z"/>
										<path id="&lt;Path&gt;" class="s14" d="m346.8 196.9h11.6v1.4h-11.6z"/>
										<path id="&lt;Path&gt;" class="s14" d="m492.2 196.9h10.2v1.4h-10.2z"/>
										<path id="&lt;Path&gt;" class="s14" d="m459 196.9h16.1v1.4h-16.1z"/>
										<path id="&lt;Path&gt;" class="s14" d="m479.7 196.9h10.2v1.4h-10.2z"/>
										<path id="&lt;Path&gt;" class="s14" d="m436.8 196.9h16.2v1.4h-16.2z"/>
										<path id="&lt;Path&gt;" class="s14" d="m361.1 196.9h72.5v1.4h-72.5z"/>
										<path id="&lt;Path&gt;" class="s14" d="m290.5 196.9h54.9v1.4h-54.9z"/>
										<path id="&lt;Path&gt;" class="s14" d="m492.2 203.3h10.2v1.4h-10.2z"/>
										<path id="&lt;Path&gt;" class="s14" d="m461.3 203.3h13.8v1.4h-13.8z"/>
										<path id="&lt;Path&gt;" class="s14" d="m436.8 203.3h15.7v1.4h-15.7z"/>
										<path id="&lt;Path&gt;" class="s14" d="m479.7 203.3h10.2v1.4h-10.2z"/>
										<path id="&lt;Path&gt;" class="s14" d="m413.7 203.3h19.9v1.4h-19.9z"/>
										<path id="&lt;Path&gt;" class="s14" d="m392.5 203.3h18.5v1.4h-18.5z"/>
										<path id="&lt;Path&gt;" class="s14" d="m361.1 203.3h27.3v1.4h-27.3z"/>
										<path id="&lt;Path&gt;" class="s14" d="m290.5 203.3h67.9v1.4h-67.9z"/>
										<path id="&lt;Path&gt;" class="s14" d="m479.7 209.8h22.7v1.4h-22.7z"/>
										<path id="&lt;Path&gt;" class="s14" d="m461.3 209.8h13.8v1.4h-13.8z"/>
										<path id="&lt;Path&gt;" class="s14" d="m413.7 209.8h38.8v1.4h-38.8z"/>
										<path id="&lt;Path&gt;" class="s14" d="m392.5 209.8h18.5v1.4h-18.5z"/>
										<path id="&lt;Path&gt;" class="s14" d="m361.1 209.8h27.3v1.4h-27.3z"/>
										<path id="&lt;Path&gt;" class="s14" d="m290.5 209.8h67.9v1.4h-67.9z"/>
									</g>
								</g>
								<g id="&lt;Group&gt;">
									<g id="&lt;Group&gt;">
										<path id="&lt;Path&gt;" class="s15" d="m371.3 109.9h123.1v92.8h-123.1z"/>
										<path id="&lt;Path&gt;" class="s1" d="m371.3 109.9h123.1v7h-123.1z"/>
									</g>
									<g id="&lt;Group&gt;">
										<g id="&lt;Group&gt;">
											<path id="&lt;Path&gt;" class="s16" d="m380.2 110.9c1.3 0 2.4 1.1 2.4 2.4 0 1.3-1.1 2.4-2.4 2.4-1.4 0-2.4-1.1-2.4-2.4 0-1.3 1-2.4 2.4-2.4z"/>
										</g>
										<g id="&lt;Group&gt;">
											<path id="&lt;Path&gt;" class="s17" d="m391.8 110.9c1.3 0 2.4 1.1 2.4 2.4 0 1.3-1.1 2.4-2.4 2.4-1.4 0-2.5-1.1-2.5-2.4 0-1.3 1.1-2.4 2.5-2.4z"/>
										</g>
										<g id="&lt;Group&gt;">
											<path id="&lt;Path&gt;" class="s18" d="m402.7 110.9c1.3 0 2.4 1.1 2.4 2.4 0 1.3-1.1 2.4-2.4 2.4-1.3 0-2.4-1.1-2.4-2.4 0-1.3 1.1-2.4 2.4-2.4z"/>
										</g>
									</g>
									<g id="&lt;Group&gt;">
										<g id="&lt;Group&gt;">
											<path id="&lt;Path&gt;" class="s17" d="m481.2 125.9h4.8v1.4h-4.8z"/>
										</g>
										<g id="&lt;Group&gt;">
											<path id="&lt;Path&gt;" class="s17" d="m397.4 125.9h67.6v1.4h-67.6z"/>
										</g>
										<g id="&lt;Group&gt;">
											<path id="&lt;Path&gt;" class="s17" d="m481.2 131.4h4.8v1.4h-4.8z"/>
										</g>
										<g id="&lt;Group&gt;">
											<path id="&lt;Path&gt;" class="s17" d="m465 131.4v1.4h-51.4v-1h-11v1h-0.7v-1.4z"/>
										</g>
										<g id="&lt;Group&gt;">
											<path id="&lt;Path&gt;" class="s17" d="m481.2 136.9h4.8v1.4h-4.8z"/>
										</g>
										<g id="&lt;Group&gt;">
											<path id="&lt;Path&gt;" class="s17" d="m419.8 136.9h45.2v1.4h-45.2z"/>
										</g>
										<g id="&lt;Group&gt;">
											<path id="&lt;Path&gt;" class="s17" d="m401.9 137.6v-0.7h0.7v1.4h-5.2v-0.7z"/>
										</g>
										<g id="&lt;Group&gt;">
											<path id="&lt;Path&gt;" class="s17" d="m465 142.5v0.6h16.2v-0.6h4.8v1.3h-38.9v-1.3z"/>
										</g>
										<g id="&lt;Group&gt;">
											<path id="&lt;Path&gt;" class="s17" d="m419.8 142.5h8.7v1.3h-8.7z"/>
										</g>
										<g id="&lt;Group&gt;">
											<path id="&lt;Path&gt;" class="s17" d="m397.1 142.5h6.5v1.3h-6.5z"/>
										</g>
										<g id="&lt;Group&gt;">
											<path id="&lt;Path&gt;" class="s17" d="m465 148h21v1.3h-21z"/>
										</g>
										<g id="&lt;Group&gt;">
											<path id="&lt;Path&gt;" class="s17" d="m394.3 148h34.2v1.3h-34.2z"/>
										</g>
										<g id="&lt;Group&gt;">
											<path id="&lt;Path&gt;" class="s17" d="m465 153.5h21v1.4h-21z"/>
										</g>
										<g id="&lt;Group&gt;">
											<path id="&lt;Path&gt;" class="s17" d="m394.3 153.5h34.2v1h18.6v-1h1.4v1.4h-15.6-11.7-1.7v-1.1h-7.2v1.1h-4.2v-0.7h-13.8z"/>
										</g>
										<g id="&lt;Group&gt;">
											<path id="&lt;Path&gt;" class="s17" d="m432.9 159h15.6v0.3h16.5v-0.3h21v1.4h-53.1z"/>
										</g>
										<g id="&lt;Group&gt;">
											<path id="&lt;Path&gt;" class="s17" d="m419.5 159h1.7v1.4h-1.7z"/>
										</g>
										<g id="&lt;Group&gt;">
											<path id="&lt;Path&gt;" class="s17" d="m408.1 159h4.2v1.4h-4.2z"/>
										</g>
										<g id="&lt;Group&gt;">
											<path id="&lt;Path&gt;" class="s16" d="m464 177.6h21v1.4h-21z"/>
										</g>
										<g id="&lt;Group&gt;">
											<path id="&lt;Path&gt;" class="s16" d="m441.6 177.6h4.1v1.4h-4.1z"/>
										</g>
										<g id="&lt;Group&gt;">
											<path id="&lt;Path&gt;" class="s16" d="m412.6 177.6h18.3v1.4h-18.3z"/>
										</g>
										<g id="&lt;Group&gt;">
											<path id="&lt;Path&gt;" class="s16" d="m464 184.2h21.3v1.3h-21.3z"/>
										</g>
										<g id="&lt;Group&gt;">
											<path id="&lt;Path&gt;" class="s16" d="m441.6 184.2h4.1v1.3h-4.1z"/>
										</g>
										<g id="&lt;Group&gt;">
											<path id="&lt;Path&gt;" class="s16" d="m428.5 184.2h2.4v1.3h-2.4z"/>
										</g>
										<g id="&lt;Group&gt;">
											<path id="&lt;Path&gt;" class="s16" d="m412.6 184.2h6.6v1.3h-6.6z"/>
										</g>
										<g id="&lt;Group&gt;">
											<path id="&lt;Path&gt;" class="s16" d="m464 190.7h21.7v1.4h-21.7z"/>
										</g>
										<g id="&lt;Group&gt;">
											<path id="&lt;Path&gt;" class="s16" d="m414.3 190.7h31.4v1.4h-31.4z"/>
										</g>
									</g>
								</g>
								<g id="&lt;Group&gt;">
									<g id="&lt;Group&gt;">
										<path id="&lt;Path&gt;" class="s15" d="m271.3 145.9h90.8v68.4h-90.8z"/>
										<path id="&lt;Path&gt;" class="s1" d="m271.3 145.9h90.8v5.1h-90.8z"/>
									</g>
									<g id="&lt;Group&gt;">
										<g id="&lt;Group&gt;">
											<path id="&lt;Path&gt;" class="s16" d="m277.8 146.6c1 0 1.8 0.8 1.8 1.8 0 1-0.8 1.8-1.8 1.8-1 0-1.8-0.8-1.8-1.8 0-1 0.8-1.8 1.8-1.8z"/>
										</g>
										<g id="&lt;Group&gt;">
											<path id="&lt;Path&gt;" class="s17" d="m286.4 146.6c0.9 0 1.7 0.8 1.7 1.8 0 1-0.8 1.8-1.7 1.8-1 0-1.8-0.8-1.8-1.8 0-1 0.8-1.8 1.8-1.8z"/>
										</g>
										<g id="&lt;Group&gt;">
											<path id="&lt;Path&gt;" class="s18" d="m294.4 146.6c1 0 1.8 0.8 1.8 1.8 0 1-0.8 1.8-1.8 1.8-1 0-1.8-0.8-1.8-1.8 0-1 0.8-1.8 1.8-1.8z"/>
										</g>
									</g>
									<g id="&lt;Group&gt;">
										<g id="&lt;Group&gt;">
											<path id="&lt;Path&gt;" class="s18" d="m343.8 159.9h12.7v0.5h-12.7z"/>
										</g>
										<g id="&lt;Group&gt;">
											<path id="&lt;Path&gt;" class="s18" d="m317.3 159.9h16.5v0.5h-16.5z"/>
										</g>
										<g id="&lt;Group&gt;">
											<path id="&lt;Path&gt;" class="s18" d="m335.3 159.9h6.8v0.5h-6.8z"/>
										</g>
										<g id="&lt;Group&gt;">
											<path id="&lt;Path&gt;" class="s18" d="m311 159.9h3.9v0.5h-3.9z"/>
										</g>
										<g id="&lt;Group&gt;">
											<path id="&lt;Path&gt;" class="s18" d="m289.8 159.9h20.4v0.5h-20.4z"/>
										</g>
										<g id="&lt;Group&gt;">
											<path id="&lt;Path&gt;" class="s18" d="m284.9 159.9h4.2v0.5h-4.2z"/>
										</g>
										<g id="&lt;Group&gt;">
											<path id="&lt;Path&gt;" class="s18" d="m284.4 159.9v0.5h-6.8v-0.5z"/>
										</g>
										<g id="&lt;Group&gt;">
											<path id="&lt;Path&gt;" class="s18" d="m343.8 161.1h12.7v0.8h-12.7z"/>
										</g>
										<g id="&lt;Group&gt;">
											<path id="&lt;Path&gt;" class="s18" d="m335.3 161.1h6.8v0.8h-6.8z"/>
										</g>
										<g id="&lt;Group&gt;">
											<path id="&lt;Path&gt;" class="s18" d="m317.3 161.1h16.5v0.8h-16.5z"/>
										</g>
										<g id="&lt;Group&gt;">
											<path id="&lt;Path&gt;" class="s18" d="m311 161.1h3.9v0.8h-3.9z"/>
										</g>
										<g id="&lt;Group&gt;">
											<path id="&lt;Path&gt;" class="s18" d="m310.2 161.1v0.8h-11.9v-0.5h-0.7v0.5h-7.8v-0.8z"/>
										</g>
										<g id="&lt;Group&gt;">
											<path id="&lt;Path&gt;" class="s18" d="m284.9 161.1h4.2v0.8h-4.2z"/>
										</g>
										<g id="&lt;Group&gt;">
											<path id="&lt;Path&gt;" class="s18" d="m277.6 161.1h6.8v0.8h-6.8z"/>
										</g>
										<g id="&lt;Group&gt;">
											<path id="&lt;Path&gt;" class="s18" d="m335.1 167.5h21.4v0.4h-21.4z"/>
										</g>
										<g id="&lt;Group&gt;">
											<path id="&lt;Path&gt;" class="s18" d="m326.1 167.5h8.5v0.4h-8.5z"/>
										</g>
										<g id="&lt;Group&gt;">
											<path id="&lt;Path&gt;" class="s18" d="m324.1 167.5v0.4h-6.8v-0.4z"/>
										</g>
										<g id="&lt;Group&gt;">
											<path id="&lt;Path&gt;" class="s18" d="m298.3 167.5h16.6v0.4h-16.6z"/>
										</g>
										<g id="&lt;Group&gt;">
											<path id="&lt;Path&gt;" class="s18" d="m277.6 167.5h11v0.4h-11z"/>
										</g>
										<g id="&lt;Group&gt;">
											<path id="&lt;Path&gt;" class="s18" d="m289.8 167.5h7.8v0.4h-7.8z"/>
										</g>
										<g id="&lt;Group&gt;">
											<path id="&lt;Path&gt;" class="s18" d="m326.1 168.7h8.5v1.9h-8.5z"/>
										</g>
										<g id="&lt;Group&gt;">
											<path id="&lt;Path&gt;" class="s18" d="m335.1 168.7h21.4v1.9h-21.4z"/>
										</g>
										<g id="&lt;Group&gt;">
											<path id="&lt;Path&gt;" class="s18" d="m317.3 168.7h6.8v1.9h-6.8z"/>
										</g>
										<g id="&lt;Group&gt;">
											<path id="&lt;Path&gt;" class="s18" d="m289.8 168.7h7.8v1.7h0.7v-1.7h16.6v1.9h-25.1z"/>
										</g>
										<g id="&lt;Group&gt;">
											<path id="&lt;Path&gt;" class="s18" d="m288.6 168.7v1.9h-3.9v-1.2h-3.2v1.2h-3.9v-1.9z"/>
										</g>
										<g id="&lt;Group&gt;">
											<path id="&lt;Path&gt;" class="s18" d="m344.8 178h11.4v2.3h-6.8v-2.1h-4.6z"/>
										</g>
										<g id="&lt;Group&gt;">
											<path id="&lt;Path&gt;" class="s18" d="m301.5 178v0.2h-3.4v-0.2z"/>
										</g>
										<g id="&lt;Group&gt;">
											<path id="&lt;Path&gt;" class="s18" d="m288.3 178v0.2h-4.4v2.1h-6.5v-2.3z"/>
										</g>
										<g id="&lt;Group&gt;">
											<path id="&lt;Path&gt;" class="s18" d="m294.4 178v0.2h-4.9v-0.2z"/>
										</g>
										<g id="&lt;Group&gt;">
											<path id="&lt;Path&gt;" class="s18" d="m325.8 191.8h8.5v0.9h-8.5z"/>
										</g>
										<g id="&lt;Group&gt;">
											<path id="&lt;Path&gt;" class="s18" d="m325.8 187.2h7.3v1.4h-7.3z"/>
										</g>
										<g id="&lt;Group&gt;">
											<path id="&lt;Path&gt;" class="s18" d="m356.2 187.2v1.4h-8.2v-1.2h-0.3v1.2h-1.7v-1.4z"/>
										</g>
										<g id="&lt;Group&gt;">
											<path id="&lt;Path&gt;" class="s18" d="m336.5 187.2h9.3v1.4h-9.3z"/>
										</g>
										<g id="&lt;Group&gt;">
											<path id="&lt;Path&gt;" class="s18" d="m334.8 191.8h11v0.9h-11z"/>
										</g>
										<g id="&lt;Group&gt;">
											<path id="&lt;Path&gt;" class="s18" d="m348 191.8h8.2v0.9h-8.2z"/>
										</g>
										<g id="&lt;Group&gt;">
											<path id="&lt;Path&gt;" class="s18" d="m347.7 191.8v0.9h-1.7v-0.9z"/>
										</g>
										<g id="&lt;Group&gt;">
											<path id="&lt;Path&gt;" class="s18" d="m318.3 187.2h5.6v1.4h-5.6z"/>
										</g>
										<g id="&lt;Group&gt;">
											<path id="&lt;Path&gt;" class="s18" d="m318.3 191.8h5.6v0.9h-5.6z"/>
										</g>
										<g id="&lt;Group&gt;">
											<path id="&lt;Path&gt;" class="s18" d="m289.5 187.2h4.9v1.4h-4.9z"/>
										</g>
										<g id="&lt;Group&gt;">
											<path id="&lt;Path&gt;" class="s18" d="m298.1 187.2h16.5v1.4h-16.5z"/>
										</g>
										<g id="&lt;Group&gt;">
											<path id="&lt;Path&gt;" class="s18" d="m298.9 200.7h16.6v1.4h-16.6z"/>
										</g>
										<g id="&lt;Group&gt;">
											<path id="&lt;Path&gt;" class="s18" d="m279 200.7h16.6v1.4h-16.6z"/>
										</g>
										<g id="&lt;Group&gt;">
											<path id="&lt;Path&gt;" class="s18" d="m297.8 191.8h16.8v0.9h-16.8z"/>
										</g>
										<g id="&lt;Group&gt;">
											<path id="&lt;Path&gt;" class="s18" d="m289.5 191.8h4.9v0.9h-4.9z"/>
										</g>
										<g id="&lt;Group&gt;">
											<path id="&lt;Path&gt;" class="s18" d="m284.4 187.2h3.9v1.4h-3.9z"/>
										</g>
										<g id="&lt;Group&gt;">
											<path id="&lt;Path&gt;" class="s18" d="m277.4 187.2h3.9v1.4h-3.9z"/>
										</g>
										<g id="&lt;Group&gt;">
											<path id="&lt;Path&gt;" class="s18" d="m288.3 191.8v0.9h-3.9v-0.9z"/>
										</g>
										<g id="&lt;Group&gt;">
											<path id="&lt;Path&gt;" class="s18" d="m281.3 191.8v0.9h-3.9v-0.9z"/>
										</g>
										<g id="&lt;Group&gt;">
											<path id="&lt;Path&gt;" class="s18" d="m326 195.6v0.2h-4.4v2.1h-6.6v-2.3z"/>
										</g>
										<g id="&lt;Group&gt;">
											<path id="&lt;Path&gt;" class="s18" d="m327.2 204.8h4.9v1.4h-4.9z"/>
										</g>
										<g id="&lt;Group&gt;">
											<path id="&lt;Path&gt;" class="s18" d="m335.7 204.8h16.6v1.4h-16.6z"/>
										</g>
										<g id="&lt;Group&gt;">
											<path id="&lt;Path&gt;" class="s18" d="m335.5 209.4h16.8v0.9h-16.8z"/>
										</g>
										<g id="&lt;Group&gt;">
											<path id="&lt;Path&gt;" class="s18" d="m327.2 209.4h4.9v0.9h-4.9z"/>
										</g>
										<g id="&lt;Group&gt;">
											<path id="&lt;Path&gt;" class="s18" d="m322.1 204.8h3.9v1.4h-3.9z"/>
										</g>
										<g id="&lt;Group&gt;">
											<path id="&lt;Path&gt;" class="s18" d="m315 204.8h3.9v1.4h-3.9z"/>
										</g>
										<g id="&lt;Group&gt;">
											<path id="&lt;Path&gt;" class="s18" d="m326 209.4v0.9h-3.9v-0.9z"/>
										</g>
										<g id="&lt;Group&gt;">
											<path id="&lt;Path&gt;" class="s18" d="m318.9 209.4v0.9h-3.9v-0.9z"/>
										</g>
										<g id="&lt;Group&gt;">
											<path id="&lt;Path&gt;" class="s18" d="m343.8 156.3h12.7v1.7h-12.7z"/>
										</g>
										<g id="&lt;Group&gt;">
											<path id="&lt;Path&gt;" class="s18" d="m335.3 156.3h6.8v1.7h-6.8z"/>
										</g>
										<g id="&lt;Group&gt;">
											<path id="&lt;Path&gt;" class="s18" d="m317.3 156.3h16.5v1.7h-16.5z"/>
										</g>
										<g id="&lt;Group&gt;">
											<path id="&lt;Path&gt;" class="s18" d="m289.8 158v-1.7h25.1v1.7h-3.9v-1.3h-0.8v1.3z"/>
										</g>
										<g id="&lt;Group&gt;">
											<path id="&lt;Path&gt;" class="s18" d="m289.1 156.3v1.7h-4.2v-0.5h-0.5v0.5h-6.8v-1.7z"/>
										</g>
									</g>
								</g>
							</g>
							<g id="&lt;Group&gt;">
								<g id="&lt;Group&gt;">
									<g id="&lt;Group&gt;">
										<path id="&lt;Path&gt;" class="s19" d="m420.3 302.5v5.6l-68.7-0.4v-5.6z"/>
									</g>
									<g id="&lt;Group&gt;">
										<path id="&lt;Path&gt;" class="s20" d="m553.4 303.3l4.2 5.6-154.9-0.9v-5.6z"/>
									</g>
								</g>
								<path id="&lt;Path&gt;" class="s0" d="m537.6 298.5l15.8 4.8-201.8-1.2 4.3-4.7z"/>
							</g>
							<g id="&lt;Group&gt;">
								<g id="&lt;Group&gt;">
									<path id="&lt;Path&gt;" class="s21" d="m281.3 295.9q2.6-0.7 5.5-0.9c15.5-0.9 23.7 6.4 28.7 13.9h-50.6c2-5.5 7.9-11 16.4-13z"/>
								</g>
								<g id="&lt;Group&gt;">
									<path id="&lt;Path&gt;" class="s17" d="m281.3 295.9c8.9 2 14.4 7.5 18 13h-34.4c2-5.5 7.9-11 16.4-13z"/>
								</g>
							</g>
						</g>
						<g id="&lt;Group&gt;">
							<path id="&lt;Path&gt;" class="s0" d="m179.2 230.2c0.4-5.9 4-10.8 8.1-10.8h23c4.1 0 8 4.9 8.7 10.8l8.6 68.1c0.7 5.9-3.5 10.7-9.5 10.7h-33.6c-6 0-10.5-4.8-10-10.7z"/>
							<path id="&lt;Path&gt;" class="s1" d="m187.4 243.2c0.3-4.7 3.2-8.4 6.5-8.4h18.4c3.2 0 6.3 3.7 6.9 8.4l6.8 53.2c0.6 4.6-2.7 8.4-7.5 8.4h-26.9c-4.7 0-8.3-3.8-8-8.4z"/>
							<g id="&lt;Group&gt;">
								<path id="&lt;Compound Path&gt;" fill-rule="evenodd" class="s0" d="m204.1 264.7c9.9 0 17.8 7.9 17.8 17.8 0 9.8-7.9 17.7-17.8 17.7-9.8 0-17.7-7.9-17.7-17.7 0-9.9 7.9-17.8 17.7-17.8zm-16.4 17.8c0 9 7.4 16.4 16.4 16.4 9.1 0 16.5-7.4 16.5-16.4 0-9.1-7.4-16.5-16.5-16.5-9 0-16.4 7.4-16.4 16.5z"/>
								<path id="&lt;Path&gt;" class="s0" d="m204.1 268.8c7.6 0 13.7 6.1 13.7 13.7 0 7.5-6.1 13.6-13.7 13.6-7.5 0-13.6-6.1-13.6-13.6 0-7.6 6.1-13.7 13.6-13.7z"/>
							</g>
							<g id="&lt;Group&gt;">
								<path id="&lt;Compound Path&gt;" fill-rule="evenodd" class="s0" d="m204.1 240.5c5.6 0 10.1 4.5 10.1 10 0 5.6-4.5 10-10.1 10-5.5 0-10-4.4-10-10 0-5.5 4.5-10 10-10zm-9.2 10c0 5.1 4.1 9.3 9.2 9.3 5.2 0 9.3-4.2 9.3-9.3 0-5.1-4.1-9.3-9.3-9.3-5.1 0-9.2 4.2-9.2 9.3z"/>
								<path id="&lt;Path&gt;" class="s0" d="m204.1 242.8c4.3 0 7.7 3.4 7.7 7.7 0 4.3-3.4 7.7-7.7 7.7-4.2 0-7.7-3.4-7.7-7.7 0-4.3 3.5-7.7 7.7-7.7z"/>
							</g>
						</g>
						<g id="&lt;Group&gt;">
							<g id="&lt;Group&gt;">
								<g id="&lt;Group&gt;">
									<g id="&lt;Group&gt;">
										<g id="&lt;Group&gt;">
											<path id="&lt;Path&gt;" class="s22" d="m543.1 638.5c8.4-4.7 15.5-18.4 18.9-26.8 5.4-13.6 3.7 10.1 14.1 7.5 4.3-1.1 7.2 5.3 8.2 9 2.4 8.8 0.5 23.3-1 29.1-12.5 1.6-18.9 1.6-31.5 1.7-7.2 0.1-22.9 0.2-27.2-6.4 3.4-9.2 11.2-9.9 18.5-14.1z"/>
										</g>
										<g id="&lt;Group&gt;">
											<path id="&lt;Path&gt;" class="s23" d="m580.6 570.5c0.2 10.4 1.9 20.3 0.9 31-0.8 9.1 1.6 23.3-5.7 30-14.4-7.1-14.2-39.7-18.2-53.7z"/>
										</g>
										<g id="&lt;Group&gt;">
											<path id="&lt;Path&gt;" class="s22" d="m589.6 602.7l-28.8 1.8q-1.3-5.5-2.6-11.1c-11.9-51.8-30.4-108.5-33.8-163.2l51.1-11.2c9.2 1 14.4 32.8 16 43.9 3.4 24.4 0.3 49.5-0.6 74-0.9 20.9-2.2 43.6-1.3 65.8z"/>
										</g>
									</g>
									<g id="&lt;Group&gt;">
										<g id="&lt;Group&gt;">
											<path id="&lt;Path&gt;" class="s22" d="m418.2 638.5c8.4-4.7 15.4-18.4 18.8-26.8 5.4-13.6 3.7 10.1 14.2 7.5 4.3-1.1 7.1 5.3 8.1 9 2.4 8.8 0.6 23.3-1 29.1-12.4 1.6-18.9 1.6-31.4 1.7-7.3 0.1-22.9 0.2-27.3-6.4 3.4-9.2 11.2-9.9 18.6-14.1z"/>
										</g>
										<g id="&lt;Group&gt;">
											<path id="&lt;Path&gt;" class="s23" d="m455.7 570.5c0.2 10.4 1.8 20.3 0.9 31-0.8 9.1 1.5 23.3-5.8 30-14.3-7.1-14.2-39.7-18.2-53.7z"/>
										</g>
										<g id="&lt;Group&gt;">
											<path id="&lt;Path&gt;" class="s22" d="m450.6 419c2.2 0.2 4.1 2.3 5.9 5.3 3.9 7 6.7 19.4 8.5 29 0.7 3.8 1.2 7.2 1.5 9.6 3.5 24.4 0.4 49.5-0.6 74-0.8 20.9-2.1 43.6-1.3 65.8l-28.8 1.8q-1.3-5.5-2.6-11.1c-3.6-16-7.9-32.5-12.2-49.2-9.6-37.4-19.2-76.1-21.6-113.8q0-0.1 0-0.2z"/>
										</g>
									</g>
								</g>
								<g id="&lt;Group&gt;">
									<path id="&lt;Path&gt;" class="s22" d="m501 379.8c38-8 57-3 96 0.4l5.7 67c-3.3 1.2-7.1 2-11.1 2.6-12.1 1.6-26.2 0.6-37.4 1.6-20.5 1.7-41.2 1.7-62 1.7-7.4 0-17 0.3-27.2 0.2-8.7-0.1-17.8-0.5-26.4-1.6-15-1.9-28.5-6.1-35.5-14.8-1.8-2.2-3-4.4-3.7-6.5-10-30.5 88.6-47.9 101.6-50.6z"/>
								</g>
								<g id="&lt;Group&gt;">
									<path id="&lt;Path&gt;" class="s24" d="m441.2 542c11-8.1 12.1-25.1 11.4-37.5-0.6-11.2-3.5-39.1-14-52.8-4.1-5.3-9.4-8.5-16-7.7 4.9-2.5 13.5-4 18.6-7-8.4-3.8-15.7-6.9-24.9-8.1 11.3-3.7 25.6-4.5 40.2-4.6 13 0 26.1 0.4 37.3-0.2 18.4-0.9 36.7-0.5 55.2-1.2 8.5-0.3 35.3 0.7 39.3-5l3.3 31.9c-12.1 1.6-26.2 0.6-37.4 1.6-20.5 1.7-41.2 1.7-62 1.7-7.4 0-17 0.3-27.2 0.2 0.7 3.8 1.2 7.2 1.5 9.6 3.5 24.4 0.4 49.5-0.6 74-0.8 20.9-2.1 43.6-1.3 65.8l-28.8 1.8q-1.3-5.5-2.6-11.1c-3.6-16-7.9-32.5-12.2-49.2 6.6 2.2 13.1 3 20.2-2.2z"/>
								</g>
							</g>
							<g id="&lt;Group&gt;">
								<g id="&lt;Group&gt;">
									<g id="&lt;Group&gt;">
										<path id="&lt;Compound Path&gt;" fill-rule="evenodd" class="s25" d="m559.3 83.5c0 1.4 0.8 1.6 2.1 1.1v1.4c-1.3-0.5-2.1-0.3-2.1 1zm11-11h6.3c-1.3 0-1.5 0.8-1.1 2h-4.1c0.4-1.2 0.2-2-1.1-2zm17.3 11v3.6c0-1.4-0.8-1.6-2.1-1.1v-1.4c1.3 0.5 2.1 0.3 2.1-1.1zm-11 14.6h-6.3c1.3 0 1.5-0.8 1.1-1.9h4.1c-0.4 1.1-0.2 1.9 1.1 1.9zm0 0q0 0 0 0zm-15.2-10.9q0-0.8 0.4-1-0.2-0.1-0.4-0.2zm9 9h1q0-0.1-0.1-0.3-0.3 0.3-0.9 0.3zm6.1 0q-0.6 0-0.9-0.3-0.1 0.2-0.1 0.3zm9-9v-1.1q-0.2 0.1-0.4 0.2 0.4 0.2 0.4 0.9zm0-3.7q0 0.8-0.4 1 0.2 0.1 0.4 0.2zm-9-9h-1q0 0.1 0.1 0.3 0.2-0.3 0.9-0.3zm-6.1 0q0.6 0 0.9 0.3 0-0.2 0.1-0.3zm-9 9v1.1q0.2-0.1 0.4-0.2-0.4-0.2-0.4-0.9zm0.4 0.9c3.1-1.5 8.2-6.6 9.5-9.6 1.5 1.8-7.5 10.8-9.5 9.6zm13.8-9.6c1.3 3 6.4 8.1 9.5 9.6-2 1.2-11-7.8-9.5-9.6zm9.5 11.4c-3.1 1.5-8.2 6.6-9.5 9.6-1.5-1.8 7.5-10.8 9.5-9.6zm-13.8 9.6c-1.3-3-6.4-8.1-9.5-9.6 2-1.2 11 7.8 9.5 9.6z"/>
										<g id="&lt;Group&gt;">
											<g id="&lt;Group&gt;">
												<path id="&lt;Path&gt;" class="s26" d="m609 92.1c-1.2 9.8-5.1 18.4-12.1 25.4-4.6 4.7-15.3 13.6-22.4 10.9 1.3-6.2 2.1-12.8 2.3-19.3 0.1-5.1-0.7-14.3-1-16.9z"/>
												<path id="&lt;Path&gt;" class="s27" d="m608.5 97.8c0.3 5.7-6.5 12.8-10.3 16.6-3.6 3.6-9.4 9.9-14.2 11.7-1.3-6 4.9-12.1 4.2-18.6-0.3-3.5-3.2-10.3-7.4-10.2z"/>
											</g>
											<g id="&lt;Group&gt;">
												<path id="&lt;Path&gt;" class="s23" d="m571.9 93.1c0.5-3.1 1.4-5.8 2.7-8q0.5-0.9 1.1-1.6 0.4-0.3 0.7-0.7 0.9-2.1 1.5-4.2 0.2-0.5 0.3-1 0.3-1.2 0.6-2.4 0.1-0.1 0.1-0.2 0-0.1 0-0.1 0.1-0.3 0.2-0.6 0.1-0.4 0.1-0.8c0.6-2.2 1-4.4 1.5-6.6q0-0.1 0-0.3c1.6-7 3.5-13.3 9.1-17.6 0 0 74.2-3.8 72.9 14.3-0.8 11.8-2.2 23.5-2.4 35.3q0 1.4 0 3.5c0.1 1.8 0.1 4.2 0.2 7.1 0 5.4 0.1 12.4 0.4 19.3 0.1 3.5 0.3 7 0.5 10.2q0.2 1.5 0.3 2.9 0.1 0.9 0.1 1.8c0.6 5.3 1.3 9.5 2.4 11.3q-0.1 0.2-0.3 0.3 0 0 0 0.1-0.7 0.7-1.8 1.4c-2.1 1.3-5.2 2.4-8.8 3.4-9.2 2.4-22 3.8-32.3 3.8-5.7 0.1-10.6-0.3-13.8-1.2q0 0-0.1 0c0-0.1 0-2.2-0.1-5.3 0-1.7 0-3.5 0-5.6q-0.1-2.3-0.1-4.8 0-0.3-0.1-0.6c0-2.3-0.1-4.6-0.1-6.9q0-0.6 0-1.2-0.1-1.9-0.2-3.8 0-1.2 0-2.2-0.1-0.4-0.1-0.8 0-0.4 0-0.7 0-0.3 0-0.5v-0.1q0-0.1 0-0.2 0-0.3-0.1-0.6 0-0.1 0-0.2 0-0.2 0-0.4 0-0.5 0-0.9-0.3 0.9-1 1.8c-1.2 1.5-3.1 3-5.4 4.2-1.6 0.8-3.3 1.6-5.2 2.2q-0.8 0.3-1.6 0.5-1.3 0.3-2.5 0.5c-5 1-10.3 0.8-14.4-1.3-1-0.6-1.6-1.3-2-2-0.4-0.8-0.5-1.7-0.5-2.5q0-0.3 0-0.6 0-0.1 0-0.1c0-1.9-2.2-13.2-2.6-24.5-0.1-4.4 0.1-8.8 0.8-12.8z"/>
											</g>
										</g>
										<path id="&lt;Path&gt;" class="s28" d="m587.1 134.1c8.5-2 15.3-10 18.8-17.6 1.9-4 3.1-8.6 3.4-13 0.2-2.3 0.2-4.8 0.1-7.1 0-1.8-0.9-4.8-0.1-6.3l51 12c0.3 10.7 0.2 46 3.9 52.6-6.4 7.6-44.9 18.8-57 15.5 0.3-1.7-0.5-34-0.9-42.5-2.3 6.4-20 13.2-30.1 7.9-1-0.6-1.6-1.3-2-2 4.2 1.4 9.4 1.3 12.9 0.5z"/>
										<g id="&lt;Group&gt;">
											<path id="&lt;Path&gt;" class="s23" d="m566.5 99.1c0.4-0.6 2.6-1.6 3.2-2.4 1.4-1.5 2.1-3.6 3.1-5.4 1.3-2.5 3.1-7.5 4.9-8.6l-0.8 24.3c-2.8-0.9-14.2-0.9-10.4-7.9z"/>
										</g>
										<g id="&lt;Group&gt;">
											<g id="&lt;Group&gt;">
												<g id="&lt;Group&gt;">
													<g id="&lt;Group&gt;">
														<path id="&lt;Path&gt;" class="s29" d="m575.7 83.5q0.4-0.3 0.7-0.7 0.9-2.1 1.5-4.2 0.2-0.5 0.3-1 0.3-1.2 0.6-2.4 0.1-0.1 0.1-0.2 0-0.1 0-0.1c0.6 0.8 1.1 1.8 1.3 3.1q0.1 1 0.1 2.1c-0.2 1.9-0.9 3.6-1.9 4.6-0.6 0.7-1.5 1.1-2.3 1q-0.6 0-1.1-0.3-0.2-0.2-0.4-0.3 0.5-0.9 1.1-1.6z"/>
													</g>
												</g>
												<g id="&lt;Group&gt;">
													<path id="&lt;Path&gt;" class="s29" d="m578.8 75.2q0.1-0.1 0.1-0.2 0-0.1 0-0.1 0.1-0.3 0.2-0.6c2.3 1 4 3.2 4.5 6-0.4-1-1.7-1.8-3.4-2.3q-1-0.3-2-0.4 0.3-1.2 0.6-2.4z"/>
												</g>
											</g>
											<path id="&lt;Path&gt;" class="s30" d="m576.5 68.1c1.7-1.7 6.2-2.2 9-0.3 3 1.6 6.8 5.9 6.2 7.2-0.2 1.1-7.9-0.4-9.8-0.9-1.8-0.6-9.9-1.2-5.4-6z"/>
										</g>
										<path id="&lt;Path&gt;" class="s30" d="m676.4 95.7c-6.9 14.5-6.1 22.5-11 37.7-3.2 9.9-4.6 11-15.6 10.5-7.6-0.3-13.6-0.6-20.1-4.2-0.9-5.8 0.9-11.6 1.8-17.2-2.3 2-4.5 4.7-6 7.5-7.9-5.6-11.4 0.8-16-8.9-5-10.7-4.3-34.9 1.2-44.4-15.1 11-27.5-9.9-31.4-10.4-6.1-14.1-4.7-15.1-5-30.6 0 0 17.4-9 41.2-9.8 22.3-0.7 41.7-3 48.3 16.4 28 14.3 17.9 38.4 12.6 53.4z"/>
										<path id="&lt;Path&gt;" class="s25" d="m611.1 93.9l-50.8-9.1 0.7-3.1 52.1 9z"/>
										<g id="&lt;Group&gt;">
											<g id="&lt;Group&gt;">
												<path id="&lt;Path&gt;" class="s23" d="m620.3 108.5c-2.8 3.8-9.1 7.4-13.4 3.6-3.6-3.1-3.7-16.4-3.7-16.4 3.1-3.8 10.9-13.5 17.6-5.8 5 5.7 3.2 13.6-0.5 18.6z"/>
											</g>
											<path id="&lt;Path&gt;" class="s28" d="m617.8 107.3c2.1-5.6 1.2-15.5-7.4-12.3 2.5-3.9 8-6.7 10.1-0.9 1.7 4.7-0.6 9.3-2.7 13.2z"/>
										</g>
									</g>
									<g id="&lt;Group&gt;">
										<path id="&lt;Path&gt;" class="s16" d="m535.7 373.9c8.6-5.9 12.7-45.1 15.9-88 4-53.6 6.4-112.8 14.2-119.8 13.6-12.2 32-14.7 47.3-21.9 17-8.1 43.6-5.6 62.8-4.8 1.1 6.5 0 13.2-0.8 19.5l0.1 10.5c4.2 11.5 21.7-2.6 22.4 10.3 1.1 17.5-10 62.8-10.8 80.3-1.1 23.5-9.7 56.3-14.8 79-4.5 19.6-16.6 37.3-21.9 56.5-20 4.5-39.7 4.8-60.2 2-1.9-0.2-4.4-0.7-7.5-1.4-12-2.6-31.3-7.9-41.5-13.3q-0.2-0.1-0.4-0.2c-5.7-3.1-8.4-6.2-4.8-8.7z"/>
									</g>
								</g>
								<path id="&lt;Path&gt;" class="s31" d="m535.7 373.9c8.6-5.9 12.7-45.1 15.9-88 6.9-11.7 17.3-22.1 19-35.9l21.8-53.6c-2.2 5.9-0.6 13.7-0.9 20.1-0.4 8.9 1.1 27.4-0.2 36.2-3.2 20.4-4.9 37.8-10.1 57.8-5 19.4 4.7 58.9 1.2 85.6-12-2.6-31.3-7.9-41.5-13.3-8.7-4.5-6.2-8.2-5.2-8.9z"/>
								<g id="&lt;Group&gt;">
									<g id="&lt;Group&gt;">
										<g id="&lt;Group&gt;">
											<path id="&lt;Path&gt;" class="s22" d="m613.9 111.3c13 0 23.5 10.5 23.5 23.4 0 13-10.5 23.5-23.5 23.5-12.9 0-23.4-10.5-23.4-23.5 0-12.9 10.5-23.4 23.4-23.4z"/>
										</g>
										<g id="&lt;Group&gt;">
											<path id="&lt;Path&gt;" class="s32" d="m610.2 117.6c9.4 0 17.1 7.6 17.1 17.1 0 9.5-7.7 17.2-17.1 17.2-9.5 0-17.2-7.7-17.2-17.2 0-9.5 7.7-17.1 17.2-17.1z"/>
										</g>
										<g id="&lt;Group&gt;">
											<path id="&lt;Path&gt;" class="s22" d="m606.2 123.2c6.3 0 11.5 5.2 11.5 11.5 0 6.4-5.2 11.6-11.5 11.6-6.4 0-11.5-5.2-11.5-11.6 0-6.3 5.1-11.5 11.5-11.5z"/>
										</g>
									</g>
									<g id="&lt;Group&gt;">
										<path id="&lt;Path&gt;" class="s33" d="m605.3 130.3c19 6 49.5 1.6 67.7-5.7-0.1 3.6 0.8 11.6 0.6 15.3-9.3 4.1-19 4.5-29.3 5-10.7 0.5-30.5-2.3-40.2-6.7z"/>
									</g>
									<g id="&lt;Group&gt;">
										<path id="&lt;Path&gt;" class="s33" d="m604.5 129.4c2.5 0 4.6 2.1 4.6 4.6 0 2.6-2.1 4.6-4.6 4.6-2.5 0-4.6-2-4.6-4.6 0-2.5 2.1-4.6 4.6-4.6z"/>
									</g>
								</g>
								<g id="&lt;Group&gt;">
									<g id="&lt;Group&gt;">
										<path id="&lt;Path&gt;" class="s16" d="m519.7 269.9c12.2-38.5 38.3-93.1 38.3-93.1 15.9-25.4 28.3-18 34.9-16.1 9.8 2.7 12.1 10.4 12.2 20.6 0.4 24-12.5 52.6-26.2 72.6q-1.4 2.1-2.9 4.1c-8.3 11.3-17.3 30.9-28.1 40.6q-2.6 2.2-4.8 4c-13.7 10.6-20.7 8.4-26.1 4.3q-0.5-0.4-1-0.8c-4.5-3.8-1.9-18.3 3.7-36.2z"/>
									</g>
									<g id="&lt;Group&gt;">
										<g id="&lt;Group&gt;">
											<path id="&lt;Path&gt;" class="s23" d="m424.2 281.3c9.6-3.2 21.4 3 30.2 6.9l-8.9 9.2c-6.9 1.3-9.7 1.3-16.5 1.1-18.8-0.5-20.6 2.4-27 0.7 1.4-8.3 12.6-14.7 22.2-17.9z"/>
										</g>
										<g id="&lt;Group&gt;">
											<path id="&lt;Path&gt;" class="s16" d="m447 284c37.2-0.3 56-11.4 72.7-14.1 4.8-0.8 9.3-0.9 14.1 0.1l16.7 12.7q-0.1 0.7-0.1 1.5c-0.7 7.3-3.3 13.5-7.3 18.4-7.8 9.5-20.7 14.4-33.8 13.5-4.4-0.3-19.1-3.2-34.1-6.5-18-3.9-36.2-8.6-37.1-10.2-1.8-4 8.9-15.4 8.9-15.4z"/>
										</g>
									</g>
								</g>
								<g id="&lt;Group&gt;">
									<g id="&lt;Group&gt;">
										<path id="&lt;Path&gt;" class="s31" d="m490.2 310.3c10.6 0.6 19.5 0 26.8-3.4 6.7-3.1 11.9-8.7 15.7-18.1 0.4 4.7 0.6 10-0.3 14.7 7.1-5.7 12.9-12.3 18-19.3 6.2-8.7 35.2-49 42.1-81.1 0.7 19.9-7 31.4-13.6 50.8q-1.4 2.1-2.9 4.1c-8.3 11.3-17.3 30.9-28.1 40.6q-2.6 2.2-4.8 4c-7.8 9.5-20.7 14.4-33.8 13.5-4.4-0.3-19.1-3.2-34.1-6.5 5.1 0.3 10.2 0.5 15 0.7z"/>
									</g>
								</g>
							</g>
							<g id="&lt;Group&gt;">
								<g id="&lt;Group&gt;">
									<g id="&lt;Group&gt;">
										<g id="&lt;Group&gt;">
											<path id="&lt;Path&gt;" class="s34" d="m701.8 518.7h22.2c1.9 0 3.3 2.1 3.3 4.8 0 2.6-1.4 4.7-3.3 4.7h-22.2c-1.8 0-3.3-2.1-3.3-4.7 0-2.7 1.5-4.8 3.3-4.8z"/>
										</g>
										<g id="&lt;Group&gt;">
											<path id="&lt;Path&gt;" class="s34" d="m708.3 525.5c-7.9-1.2-15.9-0.7-23.7-2-7.9-1.3-14.5-5.6-21-10.1-6.4-4.3-12.8-8.8-19.9-12-7.8-3.4-16.7-3.2-24.9-4.3-2.4-0.4-1.4-4 1-3.7 8.2 1.2 16.9 1.1 24.7 4.3 7.2 2.9 13.6 7.4 20 11.7 6.6 4.6 13.1 9 21.1 10.5 7.8 1.4 15.8 0.7 23.7 2 2.4 0.3 1.3 4-1 3.6z"/>
										</g>
									</g>
								</g>
								<g id="&lt;Group&gt;">
									<g id="&lt;Group&gt;">
										<path id="&lt;Path&gt;" class="s35" d="m460.4 459.8c0 6 17-11 11-11h260c-6.1 0 11 17 11 11v6.5c0-6-17.1 11-11 11h-260c6 0-11-17-11-11z"/>
									</g>
									<g id="&lt;Group&gt;">
										<path id="&lt;Path&gt;" class="s34" d="m631.5 448.8c6.3 0 11.4 5.1 11.4 11.3v5.9q0 0.4-0.1 0.8c-0.4 5.9-5.3 10.5-11.3 10.5h-159.8c-6.2 0-11.3-5-11.3-11.3v-0.5c-7-2.5-11.9-8.6-11.9-15.7v-1z"/>
									</g>
								</g>
								<g id="&lt;Group&gt;">
									<g id="&lt;Group&gt;">
										<path id="&lt;Path&gt;" class="s34" d="m495.9 463.1h205.6l-89.2 45.4h-28.8z"/>
									</g>
									<g id="&lt;Group&gt;">
										<path id="&lt;Path&gt;" class="s35" d="m637.7 463.1h64.1l-89.2 45.4h-17.9z"/>
									</g>
								</g>
								<g id="&lt;Group&gt;">
									<path id="&lt;Path&gt;" class="s34" d="m591.9 510.8h13.9v48.5h-13.9z"/>
								</g>
								<g id="&lt;Group&gt;">
									<path id="&lt;Path&gt;" class="s36" d="m595.4 532h9.7v72.7h-9.7z"/>
									<g id="&lt;Group&gt;">
										<path id="&lt;Path&gt;" class="s34" d="m587.7 532h22.3v72.7h-22.3z"/>
									</g>
									<g id="&lt;Group&gt;">
										<path id="&lt;Path&gt;" class="s37" d="m600.2 532h9.8v72.7h-9.8z"/>
									</g>
								</g>
								<g id="&lt;Group&gt;">
									<g id="&lt;Group&gt;">
										<path id="&lt;Path&gt;" class="s35" d="m584.4 508.5h28.9c1.1 0 2 0.6 2.6 1.4 0.7 0.9 1.1 2 1.1 3.3 0 2.6-1.6 4.7-3.7 4.7h-28.9c-2.1 0-3.7-2.1-3.7-4.7 0-2.6 1.6-4.7 3.7-4.7z"/>
									</g>
									<g id="&lt;Group&gt;">
										<path id="&lt;Path&gt;" class="s34" d="m584.4 508.5h10.8c1 0 1.9 0.6 2.6 1.4 0.6 0.9 1 2 1 3.3 0 2.6-1.6 4.7-3.6 4.7h-10.8c-2.1 0-3.7-2.1-3.7-4.7 0-2.6 1.6-4.7 3.7-4.7z"/>
									</g>
								</g>
								<g id="&lt;Group&gt;">
									<g id="&lt;Group&gt;">
										<g id="&lt;Group&gt;">
											<g id="&lt;Group&gt;">
												<path id="&lt;Path&gt;" class="s34" d="m593.3 595q0.3-0.3 0.6-0.6 0.9-0.6 1.9-1 1.1-0.5 2.4-0.5 1.3 0 2.5 0.5 1 0.4 1.9 1c1.6 1.3 2.6 3.3 2.6 5.5v40.6c0 1.9-0.8 3.7-2 4.9q-0.3 0.3-0.6 0.6-0.9 0.6-1.9 1-1.2 0.5-2.5 0.5-1.3 0-2.4-0.5-1-0.4-1.9-1c-1.6-1.3-2.6-3.3-2.6-5.5v-40.6c0-1.9 0.8-3.7 2-4.9z"/>
											</g>
										</g>
										<g id="&lt;Group&gt;">
											<path id="&lt;Path&gt;" class="s35" d="m597.2 601.6c0-0.6 0.5-1 1-1 0.6 0 1 0.4 1 1v23.7c0 0.6-0.4 1-1 1-0.5 0-1-0.4-1-1z"/>
										</g>
									</g>
									<g id="&lt;Group&gt;">
										<g id="&lt;Group&gt;">
											<g id="&lt;Group&gt;">
												<path id="&lt;Path&gt;" class="s34" d="m594.7 624.4h9.4v13.7h-9.4z"/>
											</g>
											<g id="&lt;Group&gt;">
												<path id="&lt;Path&gt;" class="s37" d="m600.6 624.4h3.5v13.7h-3.5z"/>
											</g>
										</g>
										<g id="&lt;Group&gt;">
											<g id="&lt;Group&gt;">
												<g id="&lt;Group&gt;">
													<path id="&lt;Path&gt;" class="s38" d="m616.8 633.3c7.6 0 13.7 6.1 13.7 13.7 0 7.6-6.1 13.7-13.7 13.7-7.6 0-13.8-6.1-13.8-13.7 0-7.6 6.2-13.7 13.8-13.7z"/>
												</g>
												<g id="&lt;Group&gt;">
													<path id="&lt;Path&gt;" class="s39" d="m616.8 640.1c3.8 0 6.8 3.1 6.8 6.9 0 3.8-3 6.9-6.8 6.9-3.8 0-6.9-3.1-6.9-6.9 0-3.8 3.1-6.9 6.9-6.9z"/>
												</g>
											</g>
											<g id="&lt;Group&gt;">
												<g id="&lt;Group&gt;">
													<g id="&lt;Group&gt;">
														<path id="&lt;Path&gt;" class="s37" d="m608.5 630q2.1-0.3 4.4-0.3c10.7 0 19.4 5.7 19.9 12.7h-39.8c0.4-6.1 6.9-11.1 15.5-12.4z"/>
													</g>
													<g id="&lt;Group&gt;">
														<path id="&lt;Path&gt;" class="s34" d="m608.5 630c8.7 1.3 15.2 6.3 15.6 12.4h-31.1c0.4-6.1 6.9-11.1 15.5-12.4z"/>
													</g>
												</g>
											</g>
										</g>
									</g>
								</g>
								<g id="&lt;Group&gt;">
									<g id="&lt;Group&gt;">
										<g id="&lt;Group&gt;">
											<g id="&lt;Group&gt;">
												<path id="&lt;Path&gt;" class="s34" d="m716.6 622.6h9.4v13.7h-9.4z"/>
											</g>
											<path id="&lt;Path&gt;" class="s40" d="m722.5 622.6h3.5v13.7h-3.5z"/>
										</g>
										<g id="&lt;Group&gt;">
											<g id="&lt;Group&gt;">
												<g id="&lt;Group&gt;">
													<path id="&lt;Path&gt;" class="s38" d="m738.6 631.5c7.6 0 13.8 6.1 13.8 13.7 0 7.6-6.2 13.7-13.8 13.7-7.6 0-13.7-6.1-13.7-13.7 0-7.6 6.1-13.7 13.7-13.7z"/>
												</g>
												<g id="&lt;Group&gt;">
													<path id="&lt;Path&gt;" class="s39" d="m738.6 638.4c3.8 0 6.9 3 6.9 6.8 0 3.8-3.1 6.9-6.9 6.9-3.8 0-6.8-3.1-6.8-6.9 0-3.8 3-6.8 6.8-6.8z"/>
												</g>
											</g>
											<g id="&lt;Group&gt;">
												<g id="&lt;Group&gt;">
													<g id="&lt;Group&gt;">
														<path id="&lt;Path&gt;" class="s37" d="m730.4 628.3q2.1-0.4 4.4-0.4c10.7 0 19.4 5.7 19.8 12.7h-39.7c0.3-6 6.9-11.1 15.5-12.3z"/>
													</g>
													<g id="&lt;Group&gt;">
														<path id="&lt;Path&gt;" class="s34" d="m730.4 628.3c8.6 1.2 15.2 6.3 15.5 12.3h-31c0.3-6 6.9-11.1 15.5-12.3z"/>
													</g>
												</g>
											</g>
										</g>
									</g>
									<g id="&lt;Group&gt;">
										<path id="&lt;Path&gt;" class="s34" d="m609.9 583.1c7.7 1.3 110.7 23.5 124.1 37.2 3.6 3.7-5.4 5.8-9.3 5l-114.8-21.5z"/>
									</g>
									<g id="&lt;Group&gt;">
										<path id="&lt;Path&gt;" class="s37" d="m734 620.3c1.3 1.3 1 2.4-0.1 3.3 0.2-0.6 0-1.5-0.9-2.1-14.9-9.6-105.9-24.9-123.1-27.7v-10.7c7.7 1.3 110.7 23.5 124.1 37.2z"/>
									</g>
									<g id="&lt;Group&gt;">
										<path id="&lt;Path&gt;" class="s37" d="m734.1 620.3q0.5 0.5 0.7 1c-18.9-13.8-117.4-34.6-124.8-36v-2.2c7.7 1.3 110.7 23.5 124.1 37.2z"/>
									</g>
								</g>
								<g id="&lt;Group&gt;">
									<g id="&lt;Group&gt;">
										<g id="&lt;Group&gt;">
											<g id="&lt;Group&gt;">
												<path id="&lt;Path&gt;" class="s34" d="m471.7 622.6h9.4v13.7h-9.4z"/>
											</g>
											<path id="&lt;Path&gt;" class="s40" d="m471.7 622.6h3.5v13.7h-3.5z"/>
										</g>
										<g id="&lt;Group&gt;">
											<g id="&lt;Group&gt;">
												<g id="&lt;Group&gt;">
													<path id="&lt;Path&gt;" class="s38" d="m459.1 631.5c7.5 0 13.7 6.1 13.7 13.7 0 7.6-6.2 13.7-13.7 13.7-7.6 0-13.8-6.1-13.8-13.7 0-7.6 6.2-13.7 13.8-13.7z"/>
												</g>
												<g id="&lt;Group&gt;">
													<path id="&lt;Path&gt;" class="s39" d="m459.1 638.4c3.8 0 6.8 3 6.8 6.8 0 3.8-3 6.9-6.8 6.9-3.8 0-6.9-3.1-6.9-6.9 0-3.8 3.1-6.8 6.9-6.8z"/>
												</g>
											</g>
											<g id="&lt;Group&gt;">
												<g id="&lt;Group&gt;">
													<g id="&lt;Group&gt;">
														<path id="&lt;Path&gt;" class="s37" d="m482.8 640.6h-39.7c0.4-7 9.1-12.7 19.8-12.7q2.3 0 4.4 0.4c8.6 1.2 15.2 6.3 15.5 12.3z"/>
													</g>
													<g id="&lt;Group&gt;">
														<path id="&lt;Path&gt;" class="s34" d="m482.8 640.6h-31c0.3-6 6.9-11.1 15.5-12.3 8.6 1.2 15.2 6.3 15.5 12.3z"/>
													</g>
												</g>
											</g>
										</g>
									</g>
									<g id="&lt;Group&gt;">
										<path id="&lt;Path&gt;" class="s34" d="m587.8 603.8l-114.8 21.5c-3.9 0.8-12.9-1.3-9.3-5 13.4-13.7 116.4-35.9 124.1-37.2z"/>
									</g>
									<g id="&lt;Group&gt;">
										<path id="&lt;Path&gt;" class="s37" d="m587.8 583.1v10.7c-17.2 2.8-108.2 18.1-123.2 27.7-0.8 0.6-1 1.5-0.8 2.1-1.1-0.9-1.4-2-0.1-3.3 13.4-13.7 116.4-35.9 124.1-37.2z"/>
									</g>
									<g id="&lt;Group&gt;">
										<path id="&lt;Path&gt;" class="s37" d="m587.7 583.1v2.2c-7.4 1.4-105.9 22.2-124.8 36q0.2-0.5 0.7-1c13.4-13.7 116.4-35.9 124.1-37.2z"/>
									</g>
								</g>
								<g id="&lt;Group&gt;">
									<g id="&lt;Group&gt;">
										<path id="&lt;Path&gt;" class="s35" d="m488.7 327.7c4.2-2.5 13.1-3 17.8-3h84.7c-2.8 7.4-5.1 15.1-7.5 22.7h-79.2q-0.1 0.1-0.1 0.1 0 0 0 0-0.1 0-0.1 0 0 0 0 0c-0.2 0.2-0.5 0.4-0.7 0.6q0 0 0 0 0 0 0 0.1-0.3 0.4-0.5 0.8 0 0 0 0-0.3 0.9-0.5 1.7 0 0 0 0c-0.1 1.9 0 3.7 0 5.5v74.7c0 6.2-5.2 11.3-11.4 11.3q-1.4 0-2.7-0.3c-4.9-1.2-8.7-5.8-8.7-11v-78.8c0-9.8 0.5-19.2 8.9-24.4z"/>
									</g>
									<g id="&lt;Group&gt;">
										<path id="&lt;Path&gt;" class="s35" d="m504.2 347.4q0.1-0.2 0.1-0.2 0 0-0.1 0.2 0 0 0 0z"/>
									</g>
									<g id="&lt;Group&gt;">
										<path id="&lt;Path&gt;" class="s35" d="m504.1 347.5q0 0 0 0 0 0 0 0 0 0 0 0 0 0 0 0z"/>
									</g>
									<g id="&lt;Group&gt;">
										<path id="&lt;Path&gt;" class="s35" d="m503.9 347.7q0 0 0.1-0.1 0 0 0 0 0 0.1-0.1 0.1 0 0 0 0z"/>
									</g>
									<g id="&lt;Group&gt;">
										<path id="&lt;Path&gt;" class="s34" d="m495.9 336.1c4.2-2.6 14.2-3.1 19-3.1h73.3c-1.6 4.8-3 9.6-4.5 14.4h-79.2q-0.1 0.1-0.1 0.1 0 0 0 0-0.1 0-0.1 0 0 0 0 0c-0.2 0.2-0.5 0.4-0.7 0.6q0 0 0 0 0 0 0 0.1-0.3 0.4-0.5 0.8 0 0 0 0-0.3 0.9-0.5 1.7 0 0 0 0c-0.1 1.9 0 3.7 0 5.5v74.7c0 6.2-5.2 11.3-11.4 11.3q-1.4 0-2.7-0.3-0.3-1.3-0.3-2.7v-78.8c0-9.7-0.8-19.2 7.7-24.3z"/>
									</g>
									<g id="&lt;Group&gt;">
										<path id="&lt;Path&gt;" class="s41" d="m499.6 331.4c-9.6 0.2-13.9 8.9-13.7 17.6 0 1.8-2.8 1.8-2.8 0-0.2-5.2 0.9-10.6 4.3-14.6 3-3.8 7.4-5.7 12.2-5.8 1.9 0 1.9 2.8 0 2.8z"/>
									</g>
								</g>
								<g id="&lt;Group&gt;">
									<g id="&lt;Group&gt;">
										<g id="&lt;Group&gt;">
											<path id="&lt;Path&gt;" class="s42" d="m649.5 124.4c0 8.8 24.8-16 16-16h70.6c-8.8 0 16 24.8 16 16v25.2c0-8.8-24.8 16-16 16h-70.6c8.8 0-16-24.8-16-16z"/>
										</g>
										<g id="&lt;Group&gt;" style="opacity: .2;mix-blend-mode: multiply">
											<path id="&lt;Path&gt;" class="s43" d="m752 151c-0.6 8.2-7.5 14.6-15.8 14.6l-70.9-0.2c-8.7 0-15.8-7.1-15.8-15.8v-25.4c0.1-8.4 6.6-15.3 14.9-15.8q0 0.6 0 1.2l-0.1 25.4c0 8.7 7.1 15.8 15.8 15.8l70.9 0.2q0.5 0 1 0z"/>
										</g>
									</g>
									<g id="&lt;Group&gt;">
										<path id="&lt;Path&gt;" class="s42" d="m563.8 372c0.3-4.7 0.7-9.3 1.2-13.8 2.6-25.1 13.6-49.6 18.8-74.5q0.3-1.3 0.5-2.7 0.6-3.3 1.3-6.6 3.8-20.3 7.4-40.6 0.9-4.6 1.7-9.3 1.9-10.9 3.8-21.9 0.2-1.2 0.4-2.5c4.2-24.4 15.4-38.2 39.5-41.8 3.5-0.6 7.9-1 12.9-1.3q0 0 0 0c28.3-1.8 75.6-0.7 85.7 0.4 4.2 0.5 8.3 1 12.2 1.5 8.5 1.1 15.4 2.2 17.2 2.9 7.6 0.7 13.4 7.6 13.8 16.1q0.1 1.2 0 2.5l-20.3 253.1-0.4 4.1-1 13c-0.7 9.2-7.6 16.2-15.5 16.2-0.3 1.6-13.2 2.3-32.3 2.5-13.4 0.2-29.8 0.2-47.2 0-30.8-0.2-64.6-0.8-90-1.1-0.2-0.6-5.6-31.1-5.8-31.7q-0.1-0.1-0.1-0.3-0.8-2.1-1.4-4.3c-3.1-11.6-2.3-26.1-2.8-37.1-0.4-7.6-0.1-15.3 0.4-22.8z"/>
									</g>
									<g id="&lt;Group&gt;" style="opacity: .2;mix-blend-mode: multiply">
										<path id="&lt;Path&gt;" class="s43" d="m602.4 357.6c0-41.2 4.5-83.3 10.1-123 2.5-17.3 2.5-39.1 17.8-51.2 15-12 36.7-11.8 55-12.9 20.9-1.2 41.5-3.3 62.8-1q2 0.2 4.1 0.6c6.1 1.1 12.9 3.2 19.7 5.3 2.7 0.9 5.5 1.7 8.3 2.5q0.1 1.2 0 2.5l-20.3 253.1-0.4 4.1c-4.4 1-104.8 20.9-142-5.7-5.1-3.7-9-8.3-11.3-14-6.8-16.6-3.8-41.9-3.8-60.3z"/>
									</g>
								</g>
								<g id="&lt;Group&gt;">
									<path id="&lt;Path&gt;" class="s42" d="m476.1 431.9h271.5c4.4 0 8.5 0.6 12.3 1.6l-0.4 4.1-1 13c-0.7 9.2-7.6 16.2-15.5 16.2-0.3 1.6-13.2 2.3-32.3 2.5h-234.6c-3.9 0-7.6-0.4-10.9-1.3-10.3-2.5-17.5-8.6-17.5-15.7v-3.4c0-9.4 12.7-17 28.4-17z"/>
								</g>
							</g>
						</g>
					</g>
				</g>
			</g>
		</g>
	</g>
</svg>